<svg width="39" height="48" viewBox="0 0 39 48" fill="none" xmlns="http://www.w3.org/2000/svg">
<g filter="url(#filter0_d_2230_42)">
<path d="M6.95239 10.1587H32.0476V29C32.0476 35.0751 27.1228 40 21.0476 40H17.9524C11.8773 40 6.95239 35.0751 6.95239 29V10.1587Z" fill="#686363"/>
</g>
<g filter="url(#filter1_d_2230_42)">
<path d="M4 10.6576C4 4.77157 8.77157 0 14.6576 0H24.3424C30.2284 0 35 4.77157 35 10.6576C35 13.012 33.0914 14.9206 30.737 14.9206H8.26304C5.90863 14.9206 4 13.012 4 10.6576Z" fill="#575757"/>
<path d="M4 10.6576C4 4.77157 8.77157 0 14.6576 0H24.3424C30.2284 0 35 4.77157 35 10.6576C35 13.012 33.0914 14.9206 30.737 14.9206H8.26304C5.90863 14.9206 4 13.012 4 10.6576Z" fill="url(#paint0_linear_2230_42)" fill-opacity="0.6"/>
</g>
<defs>
<filter id="filter0_d_2230_42" x="2.95239" y="10.1587" width="33.0952" height="37.8413" filterUnits="userSpaceOnUse" color-interpolation-filters="sRGB">
<feFlood flood-opacity="0" result="BackgroundImageFix"/>
<feColorMatrix in="SourceAlpha" type="matrix" values="0 0 0 0 0 0 0 0 0 0 0 0 0 0 0 0 0 0 127 0" result="hardAlpha"/>
<feOffset dy="4"/>
<feGaussianBlur stdDeviation="2"/>
<feColorMatrix type="matrix" values="0 0 0 0 0 0 0 0 0 0 0 0 0 0 0 0 0 0 0.25 0"/>
<feBlend mode="normal" in2="BackgroundImageFix" result="effect1_dropShadow_2230_42"/>
<feBlend mode="normal" in="SourceGraphic" in2="effect1_dropShadow_2230_42" result="shape"/>
</filter>
<filter id="filter1_d_2230_42" x="0" y="0" width="39" height="22.9206" filterUnits="userSpaceOnUse" color-interpolation-filters="sRGB">
<feFlood flood-opacity="0" result="BackgroundImageFix"/>
<feColorMatrix in="SourceAlpha" type="matrix" values="0 0 0 0 0 0 0 0 0 0 0 0 0 0 0 0 0 0 127 0" result="hardAlpha"/>
<feOffset dy="4"/>
<feGaussianBlur stdDeviation="2"/>
<feColorMatrix type="matrix" values="0 0 0 0 0 0 0 0 0 0 0 0 0 0 0 0 0 0 0.25 0"/>
<feBlend mode="normal" in2="BackgroundImageFix" result="effect1_dropShadow_2230_42"/>
<feBlend mode="normal" in="SourceGraphic" in2="effect1_dropShadow_2230_42" result="shape"/>
</filter>
<linearGradient id="paint0_linear_2230_42" x1="19.5" y1="0" x2="19.5" y2="14.9206" gradientUnits="userSpaceOnUse">
<stop stop-color="white"/>
<stop offset="1" stop-color="white" stop-opacity="0"/>
</linearGradient>
</defs>
</svg>
