<svg width="39" height="48" viewBox="0 0 39 48" fill="none" xmlns="http://www.w3.org/2000/svg">
<g filter="url(#filter0_d_2231_46)">
<g filter="url(#filter1_d_2231_46)">
<path d="M6.95236 10.1587H32.0476V29C32.0476 35.0751 27.1227 40 21.0476 40H17.9524C11.8772 40 6.95236 35.0751 6.95236 29V10.1587Z" fill="#0F0E0E"/>
<path d="M6.95236 10.1587H32.0476V29C32.0476 35.0751 27.1227 40 21.0476 40H17.9524C11.8772 40 6.95236 35.0751 6.95236 29V10.1587Z" fill="url(#paint0_linear_2231_46)" fill-opacity="0.6"/>
</g>
<g filter="url(#filter2_d_2231_46)">
<path d="M4 13.0556C4 5.84517 9.84517 0 17.0556 0H21.9444C29.1548 0 35 5.84517 35 13.0556C35 14.0856 34.165 14.9206 33.1349 14.9206H5.86508C4.83502 14.9206 4 14.0856 4 13.0556Z" fill="#0F0E0E"/>
<path d="M4 13.0556C4 5.84517 9.84517 0 17.0556 0H21.9444C29.1548 0 35 5.84517 35 13.0556C35 14.0856 34.165 14.9206 33.1349 14.9206H5.86508C4.83502 14.9206 4 14.0856 4 13.0556Z" fill="url(#paint1_linear_2231_46)" fill-opacity="0.6"/>
</g>
</g>
<defs>
<filter id="filter0_d_2231_46" x="0" y="0" width="39" height="48" filterUnits="userSpaceOnUse" color-interpolation-filters="sRGB">
<feFlood flood-opacity="0" result="BackgroundImageFix"/>
<feColorMatrix in="SourceAlpha" type="matrix" values="0 0 0 0 0 0 0 0 0 0 0 0 0 0 0 0 0 0 127 0" result="hardAlpha"/>
<feOffset dy="4"/>
<feGaussianBlur stdDeviation="2"/>
<feColorMatrix type="matrix" values="0 0 0 0 0 0 0 0 0 0 0 0 0 0 0 0 0 0 0.25 0"/>
<feBlend mode="normal" in2="BackgroundImageFix" result="effect1_dropShadow_2231_46"/>
<feBlend mode="normal" in="SourceGraphic" in2="effect1_dropShadow_2231_46" result="shape"/>
</filter>
<filter id="filter1_d_2231_46" x="2.95236" y="10.1587" width="33.0952" height="37.8413" filterUnits="userSpaceOnUse" color-interpolation-filters="sRGB">
<feFlood flood-opacity="0" result="BackgroundImageFix"/>
<feColorMatrix in="SourceAlpha" type="matrix" values="0 0 0 0 0 0 0 0 0 0 0 0 0 0 0 0 0 0 127 0" result="hardAlpha"/>
<feOffset dy="4"/>
<feGaussianBlur stdDeviation="2"/>
<feColorMatrix type="matrix" values="0 0 0 0 0 0 0 0 0 0 0 0 0 0 0 0 0 0 0.25 0"/>
<feBlend mode="normal" in2="BackgroundImageFix" result="effect1_dropShadow_2231_46"/>
<feBlend mode="normal" in="SourceGraphic" in2="effect1_dropShadow_2231_46" result="shape"/>
</filter>
<filter id="filter2_d_2231_46" x="0" y="0" width="39" height="22.9207" filterUnits="userSpaceOnUse" color-interpolation-filters="sRGB">
<feFlood flood-opacity="0" result="BackgroundImageFix"/>
<feColorMatrix in="SourceAlpha" type="matrix" values="0 0 0 0 0 0 0 0 0 0 0 0 0 0 0 0 0 0 127 0" result="hardAlpha"/>
<feOffset dy="4"/>
<feGaussianBlur stdDeviation="2"/>
<feColorMatrix type="matrix" values="0 0 0 0 0 0 0 0 0 0 0 0 0 0 0 0 0 0 0.25 0"/>
<feBlend mode="normal" in2="BackgroundImageFix" result="effect1_dropShadow_2231_46"/>
<feBlend mode="normal" in="SourceGraphic" in2="effect1_dropShadow_2231_46" result="shape"/>
</filter>
<linearGradient id="paint0_linear_2231_46" x1="19.5" y1="10.1587" x2="19.5" y2="40" gradientUnits="userSpaceOnUse">
<stop stop-color="white"/>
<stop offset="1" stop-color="white" stop-opacity="0"/>
</linearGradient>
<linearGradient id="paint1_linear_2231_46" x1="19.5" y1="0" x2="19.5" y2="14.9206" gradientUnits="userSpaceOnUse">
<stop stop-color="white"/>
<stop offset="1" stop-color="white" stop-opacity="0"/>
</linearGradient>
</defs>
</svg>
